PathFileType	4	(X/Y/Z)	 0.11m3min.trc
DataRate	CameraRate	NumFrames	NumMarkers	Units	OrigDataRate	OrigDataStartFrame	OrigNumFrames
200	200	8	39	m	200	1	1000
Frame#	Time	C7			LSH			RSH			MAN			RASI			LASI			HIPR			HIPL			RPSI			LPSI			COX			RTHI1			RTHI2			RTHI3			RTHI4			RLKN			RMKN			RSHA1			RSHA2			RSHA3			RSHA4			RHEEL			RMET5			RMET1			RTOE			LTHI1			LTHI2			LTHI3			LTHI4			LLKN			LMKN			LSHA1			LSHA2			LSHA3			LSHA4			LHEEL			LMET5			LMET1			LTOE			
		X1	Y1	Z1	X2	Y2	Z2	X3	Y3	Z3	X4	Y4	Z4	X5	Y5	Z5	X6	Y6	Z6	X7	Y7	Z7	X8	Y8	Z8	X9	Y9	Z9	X10	Y10	Z10	X11	Y11	Z11	X12	Y12	Z12	X13	Y13	Z13	X14	Y14	Z14	X15	Y15	Z15	X16	Y16	Z16	X17	Y17	Z17	X18	Y18	Z18	X19	Y19	Z19	X20	Y20	Z20	X21	Y21	Z21	X22	Y22	Z22	X23	Y23	Z23	X24	Y24	Z24	X25	Y25	Z25	X26	Y26	Z26	X27	Y27	Z27	X28	Y28	Z28	X29	Y29	Z29	X30	Y30	Z30	X31	Y31	Z31	X32	Y32	Z32	X33	Y33	Z33	X34	Y34	Z34	X35	Y35	Z35	X36	Y36	Z36	X37	Y37	Z37	X38	Y38	Z38	X39	Y39	Z39	
1	0.0050	-0.309204	1.433204	-0.552077	-0.287477	1.406093	-0.745352	-0.279817	1.419258	-0.372812	-0.154649	1.372833	-0.566215	-0.194990	0.917080	-0.424564	-0.199702	0.923947	-0.671877	-0.265623	0.970332	-0.374422	-0.286122	0.977253	-0.712525	-0.368984	0.976061	-0.504880	-0.370541	0.975722	-0.566024	-0.369176	0.977563	-0.537716	-0.238928	0.701690	-0.332435	-0.219455	0.643788	-0.325481	-0.153372	0.674061	-0.328799	-0.178907	0.727709	-0.336018	-0.189905	0.438641	-0.346797	-0.151440	0.427167	-0.471889	-0.322822	0.242469	-0.368642	-0.345912	0.211457	-0.387270	-0.293415	0.180532	-0.384897	-0.273692	0.213094	-0.370279	-0.435070	0.088156	-0.461018	-0.288410	0.033273	-0.363740	-0.226199	0.047726	-0.432392	-0.194969	0.035522	-0.426334	-0.279158	0.673377	-0.726996	-0.256121	0.618388	-0.724546	-0.194859	0.645006	-0.753839	-0.225809	0.698441	-0.753232	-0.200335	0.426452	-0.715836	-0.169538	0.414028	-0.598429	-0.343816	0.231573	-0.680300	-0.000000	0.000000	-0.000000	-0.309213	0.169788	-0.671230	-0.295704	0.208583	-0.687133	-0.446318	0.088685	-0.599251	-0.290499	0.034218	-0.685619	-0.237397	0.048969	-0.612501	-0.207568	0.036559	-0.619465	
2	0.0100	-0.309322	1.433136	-0.552186	-0.287363	1.405852	-0.745510	-0.279937	1.419456	-0.372845	-0.154719	1.372707	-0.566160	-0.194922	0.917430	-0.424318	-0.199391	0.923591	-0.671733	-0.265641	0.971075	-0.374303	-0.286167	0.977042	-0.712606	-0.369141	0.975618	-0.505432	-0.370580	0.975452	-0.566527	-0.368977	0.977205	-0.538118	-0.239535	0.701683	-0.332332	-0.220276	0.643716	-0.325356	-0.154139	0.673986	-0.328213	-0.179592	0.727575	-0.335499	-0.190645	0.438690	-0.346625	-0.150852	0.427149	-0.471253	-0.323315	0.242304	-0.369011	-0.346252	0.211245	-0.387844	-0.293782	0.180464	-0.385183	-0.274210	0.212826	-0.370496	-0.434922	0.087983	-0.462101	-0.288586	0.033341	-0.364051	-0.226063	0.047715	-0.432361	-0.194861	0.035448	-0.426106	-0.279640	0.673039	-0.726532	-0.256778	0.618041	-0.724098	-0.195603	0.644368	-0.753831	-0.226395	0.697924	-0.753127	-0.200795	0.426129	-0.716000	-0.169998	0.413523	-0.598665	-0.344045	0.231096	-0.680557	-0.000000	0.000000	-0.000000	-0.309369	0.169378	-0.671394	-0.295955	0.208182	-0.687279	-0.446545	0.088181	-0.599431	-0.290566	0.034205	-0.685810	-0.237485	0.049001	-0.612570	-0.207604	0.036527	-0.619517	
3	0.0150	-0.309496	1.433792	-0.552310	-0.287271	1.406316	-0.745690	-0.280106	1.420344	-0.372858	-0.154876	1.373317	-0.566108	-0.194696	0.918465	-0.424019	-0.198854	0.923950	-0.671486	-0.265612	0.972075	-0.374387	-0.285632	0.977560	-0.712713	-0.369091	0.975796	-0.505998	-0.370355	0.975850	-0.567020	-0.368545	0.977538	-0.538512	-0.240136	0.702229	-0.332343	-0.221139	0.644199	-0.325342	-0.154909	0.674332	-0.327785	-0.180151	0.727935	-0.335109	-0.191851	0.439143	-0.346482	-0.151203	0.427592	-0.470835	-0.324040	0.242359	-0.369031	-0.346793	0.211144	-0.388074	-0.294258	0.180612	-0.385240	-0.274842	0.212908	-0.370515	-0.434911	0.087790	-0.462534	-0.288709	0.033350	-0.364134	-0.226054	0.047698	-0.432266	-0.194854	0.035423	-0.425971	-0.280152	0.673324	-0.726096	-0.257488	0.618312	-0.723651	-0.196364	0.644359	-0.753729	-0.226977	0.698042	-0.752978	-0.201754	0.426279	-0.716031	-0.171170	0.413581	-0.598684	-0.344495	0.230797	-0.680709	-0.000000	0.000000	-0.000000	-0.309630	0.169193	-0.671483	-0.296422	0.207989	-0.687244	-0.446763	0.087812	-0.599601	-0.290610	0.034181	-0.685950	-0.237615	0.049026	-0.612671	-0.207734	0.036478	-0.619442	
4	0.0200	-0.309696	1.434621	-0.552435	-0.287190	1.406983	-0.745875	-0.280293	1.421419	-0.372866	-0.155051	1.374126	-0.566053	-0.194440	0.919679	-0.423695	-0.198271	0.924511	-0.671228	-0.265526	0.973180	-0.374451	-0.285006	0.978247	-0.712796	-0.368987	0.976173	-0.506537	-0.370070	0.976433	-0.567496	-0.368093	0.978057	-0.538895	-0.240732	0.702939	-0.332363	-0.222014	0.644833	-0.325347	-0.155685	0.674787	-0.327385	-0.180696	0.728429	-0.334749	-0.193171	0.439736	-0.346361	-0.151763	0.428132	-0.470454	-0.324791	0.242468	-0.369001	-0.347363	0.211100	-0.388238	-0.294748	0.180816	-0.385242	-0.275494	0.213073	-0.370491	-0.434914	0.087670	-0.462853	-0.288856	0.033262	-0.364085	-0.226043	0.047701	-0.432208	-0.194871	0.035369	-0.425780	-0.280659	0.673816	-0.725666	-0.258208	0.618780	-0.723209	-0.197115	0.644536	-0.753607	-0.227534	0.698353	-0.752815	-0.202814	0.426555	-0.716023	-0.172466	0.413787	-0.598654	-0.344994	0.230584	-0.680816	-0.000000	0.000000	-0.000000	-0.309923	0.169111	-0.671553	-0.296921	0.207912	-0.687199	-0.446960	0.087503	-0.599755	-0.290655	0.034161	-0.686054	-0.237729	0.049069	-0.612783	-0.207831	0.036475	-0.619456	
5	0.0250	-0.309957	1.436008	-0.552567	-0.287140	1.408236	-0.746064	-0.280529	1.423059	-0.372861	-0.155290	1.375532	-0.565995	-0.194068	0.921448	-0.423317	-0.197526	0.925673	-0.670914	-0.265351	0.974582	-0.374467	-0.284011	0.979504	-0.712862	-0.368712	0.977100	-0.507042	-0.369583	0.977568	-0.567941	-0.367514	0.979140	-0.539255	-0.241307	0.704128	-0.332441	-0.222922	0.645934	-0.325422	-0.156465	0.675590	-0.327096	-0.181160	0.729338	-0.334485	-0.194844	0.440718	-0.346285	-0.153008	0.429026	-0.470221	-0.325678	0.242762	-0.368775	-0.348052	0.211200	-0.388163	-0.295306	0.181212	-0.385077	-0.276222	0.213515	-0.370323	-0.434981	0.087634	-0.462745	-0.288966	0.033143	-0.363902	-0.226096	0.047706	-0.432134	-0.194965	0.035293	-0.425567	-0.281169	0.674888	-0.725257	-0.258961	0.619799	-0.722784	-0.197853	0.645249	-0.753413	-0.228048	0.699210	-0.752609	-0.204226	0.427223	-0.715902	-0.174234	0.414445	-0.598468	-0.345657	0.230588	-0.680817	-0.000000	0.000000	-0.000000	-0.310302	0.169277	-0.671567	-0.297557	0.208089	-0.687066	-0.447115	0.087350	-0.599893	-0.290692	0.034144	-0.686112	-0.237834	0.049096	-0.612872	-0.207945	0.036485	-0.619465	
6	0.0300	-0.310282	1.437874	-0.552699	-0.287131	1.410024	-0.746245	-0.280820	1.425213	-0.372856	-0.155579	1.377475	-0.565931	-0.193605	0.923697	-0.422881	-0.196668	0.927382	-0.670577	-0.265166	0.976292	-0.374491	-0.282788	0.981252	-0.712884	-0.368290	0.978556	-0.507476	-0.368971	0.979203	-0.568344	-0.366853	0.980702	-0.539580	-0.241847	0.705771	-0.332545	-0.223854	0.647459	-0.325549	-0.157250	0.676678	-0.326877	-0.181578	0.730624	-0.334304	-0.196794	0.442099	-0.346263	-0.154789	0.430219	-0.470089	-0.326633	0.243263	-0.368477	-0.348812	0.211489	-0.387936	-0.295915	0.181743	-0.384745	-0.277005	0.214214	-0.370045	-0.435059	0.087767	-0.462350	-0.289029	0.033006	-0.363621	-0.226188	0.047718	-0.432041	-0.195104	0.035212	-0.425364	-0.281659	0.676532	-0.724867	-0.259732	0.621350	-0.722378	-0.198558	0.646462	-0.753159	-0.228485	0.700579	-0.752364	-0.205901	0.428257	-0.715677	-0.176306	0.415508	-0.598149	-0.346442	0.230852	-0.680710	-0.000000	0.000000	-0.000000	-0.310754	0.169732	-0.671542	-0.298277	0.208578	-0.686910	-0.447211	0.087379	-0.599995	-0.290714	0.034128	-0.686125	-0.237920	0.049127	-0.612949	-0.208043	0.036489	-0.619444	
7	0.0350	-0.310679	1.440275	-0.552827	-0.287173	1.412403	-0.746401	-0.281173	1.427942	-0.372849	-0.155922	1.380020	-0.565859	-0.193034	0.926491	-0.422408	-0.195681	0.929707	-0.670220	-0.264967	0.978403	-0.374492	-0.281318	0.983569	-0.712850	-0.367693	0.980605	-0.507836	-0.368226	0.981402	-0.568706	-0.366108	0.982831	-0.539874	-0.242353	0.707942	-0.332675	-0.224800	0.649493	-0.325717	-0.158018	0.678206	-0.326764	-0.181931	0.732371	-0.334208	-0.199038	0.443982	-0.346304	-0.157110	0.431787	-0.470067	-0.327674	0.243997	-0.368063	-0.349650	0.212010	-0.387547	-0.296560	0.182572	-0.384307	-0.277839	0.215225	-0.369659	-0.435136	0.088133	-0.461676	-0.289060	0.032854	-0.363274	-0.226297	0.047738	-0.431957	-0.195270	0.035141	-0.425180	-0.282117	0.678805	-0.724509	-0.260513	0.623500	-0.722002	-0.199213	0.648235	-0.752838	-0.228828	0.702527	-0.752075	-0.207846	0.429730	-0.715340	-0.178678	0.417036	-0.597709	-0.347363	0.231439	-0.680478	-0.000000	0.000000	-0.000000	-0.311286	0.170537	-0.671494	-0.299096	0.209450	-0.686732	-0.447222	0.087651	-0.600091	-0.290726	0.034125	-0.686093	-0.237970	0.049155	-0.613012	-0.208091	0.036504	-0.619460	
8	0.0400	-0.311146	1.443187	-0.552951	-0.287281	1.415321	-0.746503	-0.281600	1.431225	-0.372856	-0.156314	1.383138	-0.565775	-0.192351	0.929792	-0.421922	-0.194589	0.932613	-0.669867	-0.264774	0.980989	-0.374470	-0.279668	0.986455	-0.712772	-0.366939	0.983233	-0.508104	-0.367327	0.984131	-0.569015	-0.365237	0.985476	-0.540106	-0.242811	0.710639	-0.332813	-0.225734	0.652039	-0.325902	-0.158746	0.680187	-0.326750	-0.182212	0.734582	-0.334197	-0.201528	0.446375	-0.346410	-0.159842	0.433759	-0.470150	-0.328780	0.245013	-0.367589	-0.350542	0.212806	-0.387044	-0.297228	0.183713	-0.383783	-0.278728	0.216568	-0.369195	-0.435156	0.088746	-0.460809	-0.289060	0.032679	-0.362892	-0.226418	0.047759	-0.431860	-0.195437	0.035120	-0.425063	-0.282528	0.681681	-0.724192	-0.261291	0.626222	-0.721660	-0.199803	0.650545	-0.752458	-0.229066	0.705031	-0.751745	-0.210001	0.431662	-0.714902	-0.181242	0.419017	-0.597174	-0.348381	0.232390	-0.680164	-0.000000	0.000000	-0.000000	-0.311881	0.171714	-0.671458	-0.300003	0.210725	-0.686562	-0.447136	0.088199	-0.600200	-0.290718	0.034129	-0.686021	-0.237970	0.049165	-0.613014	-0.208092	0.036511	-0.619424	
